# xmcd
#
# Track frame offsets: 
#        150
#        19595
#        35382
#        60530
#        79639
#        94755
#        115762
#        137576
#        154650
#        171982
#        192023
#
# Disc length: 2854 seconds
#
# Revision: 0
# Processed by: cddbd v1.5.2PL0 Copyright (c) Steve Scherf et al.
# Submitted via: ExactAudioCopy v0.99pb4
#
DISCID=7e0b240b
DTITLE=Ivano Fossati - Musica Moderna
DYEAR=2008
DGENRE=Other
TTITLE0=Il rimedio
TTITLE1=Miss america
TTITLE2=Cantare a memoria
TTITLE3=Il paese dei testimoni
TTITLE4=D'amore non parliamo più
TTITLE5=Last minute
TTITLE6=Musica moderna
TTITLE7=La guerra dell'acqua
TTITLE8=Parole che si dicono
TTITLE9=Illusione
TTITLE10=L'amore trasparente
EXTD=
EXTT0=
EXTT1=
EXTT2=
EXTT3=
EXTT4=
EXTT5=
EXTT6=
EXTT7=
EXTT8=
EXTT9=
EXTT10=
PLAYORDER=
